PathFileType	4	(X/Y/Z)	Patient4_TMGait_0pt5_02_left_32.trc.trc
DataRate	CameraRate	NumFrames	NumMarkers	Units	OrigDataRate	OrigDataStartFrame	OrigNumFrames
73.298429319372	73.298429319372	5	33	mm	73.298429319372	124	       141
Frame#	Time	Sacral			L.Shoulder			Chest			R.Shoulder			Neck			R.ASIS			L.ASIS			R.Thigh.Superior			R.Thigh.Lateral			R.Thigh.Inferior			R.Patella			L.Thigh.Superior			L.Thigh.Lateral			L.Thigh.Inferior			L.Patella			L.Shank.Superior			L.Shank.Lateral			L.Shank.Inferior			R.Shank.Superior			R.Shank.Lateral			R.Shank.Inferior			R.Heel			R.Midfoot.Superior			R.Midfoot.Lateral			R.Toe			L.Heel			L.Midfoot.Lateral			L.Midfoot.Superior			L.Toe			L.Elbow			L.Wrist			R.Elbow			R.Wrist			
		X1	Y1	Z1	X2	Y2	Z2	X3	Y3	Z3	X4	Y4	Z4	X5	Y5	Z5	X6	Y6	Z6	X7	Y7	Z7	X8	Y8	Z8	X9	Y9	Z9	X10	Y10	Z10	X11	Y11	Z11	X12	Y12	Z12	X13	Y13	Z13	X14	Y14	Z14	X15	Y15	Z15	X16	Y16	Z16	X17	Y17	Z17	X18	Y18	Z18	X19	Y19	Z19	X20	Y20	Z20	X21	Y21	Z21	X22	Y22	Z22	X23	Y23	Z23	X24	Y24	Z24	X25	Y25	Z25	X26	Y26	Z26	X27	Y27	Z27	X28	Y28	Z28	X29	Y29	Z29	X30	Y30	Z30	X31	Y31	Z31	X32	Y32	Z32	X33	Y33	Z33	

124	42.808071428571	722.451030622855	1005.372206831977	527.127807263491	875.582488297375	1438.540803101477	353.767524773111	998.772498238203	1357.210952344768	494.095708755626	941.517036723730	1421.920630664746	681.932498752984	895.927444563152	1490.089127179662	507.808091827653	955.263211367182	934.485169763044	624.398042368603	921.185453765875	956.610245911292	351.325585423283	951.487860698265	723.529206574828	597.996322620682	847.103926930436	630.194965193262	659.339999219872	907.200927810130	563.843326274844	579.588922140140	885.446806412666	476.826498339672	583.166283534521	993.253607245664	769.694342857452	380.107223310660	937.029455988843	638.768857395031	310.558244368006	1039.734966084216	578.664135354578	369.307700996245	1061.043099757628	510.135060280959	370.187592549948	1043.523467638720	437.068567773148	361.441877986738	972.219079952046	309.935510380279	311.436837732178	1052.628337178121	207.709754464440	369.189906102370	843.355805285802	394.884534149244	588.686729670786	754.156700268240	304.438793331834	648.190726475979	779.637329941484	204.594841050445	583.428044109941	622.652177039177	51.802391867206	550.154733522067	797.216318213251	97.891782047669	584.523376140913	706.735024050730	39.009472813583	622.512703033249	914.849849008492	38.675634659325	608.875655359964	954.628114285194	40.484918844984	407.590814377407	1030.300255348650	37.901892448518	328.942212616397	1109.280735095053	104.571306029058	352.588059843131	1239.284984214961	59.481956215376	329.637025452772	739.493658732431	1112.789931804495	246.736969540254	748.622423574945	852.023140695704	226.670468561058	1076.711685526209	1106.724191006452	777.835655517000	1303.032103024837	1173.456184187279	689.461872772594	
125	42.821714285714	723.425573366216	1004.576158686273	523.382838696199	876.443243182180	1437.688428663206	350.741299642115	998.984113361120	1356.937327087163	492.014820667323	940.294438994583	1421.666010475745	679.487196333615	895.741410532753	1489.592368848682	504.824970551804	955.546117340149	933.702617847604	622.658089693711	923.552463310281	955.884593099103	349.498931624976	951.361024635920	722.543173484401	596.651490029403	846.022452541847	629.807108289589	657.430372870473	906.411471087858	562.840662951097	578.308825784976	883.984252552550	475.449366933067	581.851391904503	995.217984033814	768.250582365627	379.468636286201	938.290016444648	637.753193693368	310.125621789064	1040.036643669338	577.245815840642	370.113615670961	1059.949799126445	507.707729438807	371.567173320860	1041.779017952732	434.400715128612	362.444588348269	968.724143305731	308.397571082964	311.972515230897	1046.361362365519	204.774172204541	371.000933096188	840.694853211043	394.001683345616	587.555298756491	750.154397900624	304.966133886127	647.232126050381	774.462698201193	204.560098786652	583.013611068551	615.975079101770	52.860202547525	550.196829579112	790.732794349590	98.044755240976	584.546896954063	699.994183164098	39.487881071767	622.558633607173	908.073636412289	38.432581467613	608.910709846233	944.429500200305	39.556675287685	408.261580100100	1020.736516338531	36.602624248245	330.085925320703	1100.868544441921	101.384432292683	355.378466004359	1230.563418122686	53.958728305505	332.938435722508	741.275051866464	1111.667743249000	243.329787108236	753.391922941294	850.725512081536	223.799715830989	1072.210065887177	1105.036073190757	777.553240381473	1300.494916125696	1166.969821543122	690.095680447225	
126	42.835357142857	724.417059700959	1004.033006673819	519.569509917664	877.529155523858	1437.021895385499	347.564261299848	999.351234052965	1356.834575637725	489.834067305991	939.227232434150	1421.701770067732	676.894703886098	895.767947765485	1489.319618240673	501.654321526644	955.831352868148	933.097059430353	620.748316872261	925.837095468973	955.429141800206	347.542384102741	951.355582665933	721.756765497642	595.073466225551	845.204774915612	629.560735324858	655.388691895260	905.948371237543	561.999090202319	576.928599806706	882.972595411334	474.092981271966	580.577977555182	997.001359585764	767.025882123224	378.797848105513	939.436652442500	637.094260147557	309.457113340268	1040.101609230234	576.076522510446	370.801715696899	1058.648464996148	505.675169416507	372.690776787650	1039.950257785901	432.230355729672	363.094759886773	965.520618091724	307.230245600231	312.100640998394	1040.567998432970	202.468199970831	372.366091138497	838.313359982649	393.220206625876	586.424355168695	746.355989638031	305.714576458449	646.245899771968	769.481250378542	204.704175995977	582.647795275016	609.354057226357	54.256911660060	550.280539646269	784.371374552562	98.203372483009	584.559247528883	693.305150026365	40.101453758641	622.631231908527	901.321085291399	38.181497629202	608.926015006405	935.323838781261	38.822785918009	408.668806308186	1012.097257080889	35.794793563395	330.826027083259	1093.009800263535	99.135901988108	357.533313402202	1222.496987768893	50.063646850565	335.367898116964	743.713494098056	1110.554787191230	239.614489880591	758.911267233133	849.470527642909	220.639407935273	1067.089479058518	1103.382458020657	777.424265647869	1297.756941417134	1159.081813615237	691.273002254435	
127	42.849000000000	725.385375318791	1003.806098904661	515.732584912281	878.813997228880	1436.604078570165	344.275515573712	999.864638503599	1356.934834899500	487.554625831370	938.360106517400	1422.062948642762	674.164279166749	896.018798594350	1489.307875292479	498.335997465031	956.090451348121	932.743226775804	618.658230717597	927.970617084898	955.292461474264	345.422836385435	951.448159991854	721.234605370116	593.269143942799	844.682526982516	629.492148960770	653.264107650084	905.861655510206	561.367765361285	575.493462731850	882.501668922436	472.784098936277	579.446779721086	998.579636106124	766.136282367579	378.017356641903	940.476852901232	636.833253989190	308.515961599936	1039.967283283843	575.213145260865	371.224927130638	1057.194311328745	504.090167975436	373.438016993770	1038.062906912378	430.580619389765	363.362330185229	962.587808860872	306.463227350528	311.800576728829	1035.215915563863	200.793892023379	373.266202206033	836.285192490004	392.580452812938	585.370338628592	742.814499805243	306.738182682048	645.283231203627	764.747275026298	205.075146096116	582.378833124880	602.817592620948	56.088560878075	550.430012092864	778.169196747887	98.369701980556	584.576596987085	686.684542193895	40.888379152374	622.740854576731	894.593248055399	37.930057052064	608.918821500801	927.239935361418	38.308228385980	408.854278355798	1004.314921668637	35.399284676863	331.209606489133	1085.691407851140	97.739978387460	359.029512966885	1215.059635339445	47.622285731592	336.939447842322	746.787867043458	1109.530708314704	235.621948521080	765.176504771264	848.358050369898	217.189336298030	1061.364965913683	1101.837350884501	777.373484831550	1294.715033524998	1149.806185728017	692.966848372217	
128	42.862642857143	726.299722899449	1003.927276892302	511.899243654794	880.265705923572	1436.471397140990	340.906849386998	1000.507154654707	1357.251603346357	485.176744406534	937.712951730504	1422.754397965283	671.304370441600	896.488167666684	1489.568708292596	494.907179024117	956.299210796896	932.693262228985	616.387217700510	929.914389120808	955.487449455560	343.116198075966	951.638897969496	721.020280516382	591.275801034626	844.502140081657	629.613636355264	651.114091155207	906.224878949108	560.974730058003	574.059170845311	882.678724383355	471.537443910351	578.558751599330	999.944783228638	765.636387933052	377.036221914629	941.379227765957	636.951784778599	307.289076738645	1039.637725773191	574.642514020338	371.256354648888	1055.596322066570	502.933367224485	373.741265575691	1036.094175385829	429.406712914582	363.263739246279	959.835504000156	306.066272378637	311.102167282891	1030.197066263624	199.682793465478	373.736961059136	834.711790222908	392.107743764734	584.470023662218	739.609125292866	308.079205926520	644.395791747806	760.328178244363	205.713295997783	582.251287304108	596.406724800702	58.456971151659	550.666421939393	772.167180953724	98.553378695326	584.618861144165	680.153100361591	41.899226267021	622.895151341446	887.886574177865	37.686314382477	608.886348702503	919.991086347304	38.003371906571	408.866502641843	997.225466724261	35.309481941710	331.306064185032	1078.822215704289	97.038516033323	359.920523889178	1208.143021487465	46.348569963659	337.761322883090	750.438109094371	1108.663839702443	231.383459621733	772.189697916502	847.483070662631	213.452284018602	1055.046830751576	1100.458962819808	777.321209963134	1291.213177684147	1139.176837048837	695.135820949552	
